<svg width="560" height="128" viewBox="0 0 560 128" fill="none" xmlns="http://www.w3.org/2000/svg">
<path d="M0 66.7513C8.04328 66.7513 16.0078 68.3357 23.4388 71.4137C30.8699 74.4917 37.6219 79.0032 43.3093 84.6907C48.9968 90.3781 53.5083 97.1301 56.5863 104.561C59.6643 111.992 61.2487 119.957 61.2487 128H6.25C2.79822 128 1.50882e-07 125.202 0 121.75V66.7513Z" fill="#FF9898"/>
<path d="M120.843 105.683C120.438 107.889 118.882 109.708 116.766 110.451L66.7513 128C66.7513 119.957 68.3357 111.992 71.4137 104.561C74.4917 97.1301 79.0032 90.3781 84.6907 84.6907C90.3781 79.0032 97.1301 74.4917 104.561 71.4137C111.992 68.3357 119.957 66.7513 128 66.7513L120.843 105.683Z" fill="#FF9898"/>
<path d="M61.2487 0C61.2487 8.04328 59.6643 16.0078 56.5863 23.4388C53.5083 30.8699 48.9968 37.6219 43.3093 43.3093C37.6219 48.9968 30.8699 53.5083 23.4388 56.5863C16.0078 59.6643 8.04328 61.2487 0 61.2487V6.25C1.50882e-07 2.79822 2.79822 1.11995e-06 6.25 0H61.2487Z" fill="#FF9898"/>
<path d="M113.245 7.78735C115.806 8.21635 117.835 10.1844 118.342 12.7313L128 61.2487C119.957 61.2487 111.992 59.6643 104.561 56.5863C97.1301 53.5083 90.3781 48.9968 84.6907 43.3093C79.0032 37.6219 74.4917 30.8699 71.4137 23.4388C68.3357 16.0078 66.7513 8.04328 66.7513 0L113.245 7.78735Z" fill="#FF9898"/>
<path d="M534.305 90.621C529.989 90.621 526.086 89.6372 522.595 87.6695C519.104 85.6384 516.311 82.7504 514.216 79.0055C512.185 75.1972 511.17 70.5637 511.17 65.1051C511.17 59.6464 512.185 55.0447 514.216 51.2998C516.248 47.4914 519.009 44.6034 522.5 42.6358C525.991 40.6682 529.926 39.6843 534.305 39.6843C539.066 39.6843 543.319 40.7634 547.063 42.9214C550.872 45.016 553.855 47.9992 556.013 51.871C558.171 55.6794 559.25 60.0907 559.25 65.1051C559.25 70.1829 558.171 74.6259 556.013 78.4343C553.855 82.2426 550.872 85.2258 547.063 87.3839C543.319 89.542 539.066 90.621 534.305 90.621ZM508.504 108.615V40.1604H514.978V55.2034L514.312 65.2003L515.264 75.2924V108.615H508.504ZM533.829 84.6229C537.384 84.6229 540.558 83.8294 543.35 82.2426C546.143 80.5923 548.365 78.3073 550.015 75.3876C551.665 72.4044 552.49 68.9769 552.49 65.1051C552.49 61.2332 551.665 57.8375 550.015 54.9177C548.365 51.998 546.143 49.713 543.35 48.0627C540.558 46.4124 537.384 45.5873 533.829 45.5873C530.275 45.5873 527.07 46.4124 524.213 48.0627C521.421 49.713 519.199 51.998 517.549 54.9177C515.962 57.8375 515.169 61.2332 515.169 65.1051C515.169 68.9769 515.962 72.4044 517.549 75.3876C519.199 78.3073 521.421 80.5923 524.213 82.2426C527.07 83.8294 530.275 84.6229 533.829 84.6229Z" fill="#515151"/>
<path d="M483.669 90.145V79.1007L483.383 77.2918V58.8213C483.383 54.5686 482.178 51.2998 479.766 49.0148C477.417 46.7298 473.894 45.5873 469.197 45.5873C465.96 45.5873 462.882 46.1268 459.962 47.2058C457.042 48.2849 454.567 49.713 452.536 51.4902L449.489 46.4441C452.028 44.2861 455.075 42.6358 458.629 41.4933C462.184 40.2873 465.929 39.6843 469.864 39.6843C476.338 39.6843 481.321 41.3029 484.812 44.54C488.366 47.7136 490.143 52.5692 490.143 59.1069V90.145H483.669ZM466.436 90.621C462.691 90.621 459.423 90.018 456.63 88.812C453.901 87.5426 451.806 85.8288 450.346 83.6708C448.886 81.4492 448.156 78.9103 448.156 76.0541C448.156 73.4517 448.759 71.1032 449.965 69.0086C451.235 66.8506 453.266 65.1368 456.059 63.8673C458.915 62.5344 462.723 61.868 467.484 61.868H484.716V66.914H467.674C462.85 66.914 459.486 67.7709 457.582 69.4847C455.741 71.1984 454.821 73.3247 454.821 75.8636C454.821 78.7199 455.932 81.0049 458.153 82.7187C460.375 84.4324 463.485 85.2893 467.484 85.2893C471.292 85.2893 474.561 84.4324 477.29 82.7187C480.083 80.9414 482.114 78.4025 483.383 75.102L484.907 79.7672C483.637 83.0678 481.416 85.7019 478.242 87.6695C475.132 89.6372 471.197 90.621 466.436 90.621Z" fill="#515151"/>
<path d="M415.96 90.7161C410.945 90.7161 406.312 89.891 402.059 88.2407C397.807 86.5269 394.125 84.1467 391.015 81.1C387.905 78.0533 385.461 74.4672 383.684 70.3414C381.97 66.2157 381.113 61.7092 381.113 56.8218C381.113 51.9344 381.97 47.4279 383.684 43.3022C385.461 39.1764 387.905 35.5902 391.015 32.5436C394.189 29.4969 397.902 27.1484 402.154 25.4981C406.407 23.7844 411.041 22.9275 416.055 22.9275C420.879 22.9275 425.417 23.7526 429.67 25.4029C433.922 26.9897 437.509 29.4017 440.428 32.6388L435.954 37.1136C433.224 34.3208 430.209 32.3214 426.909 31.1154C423.608 29.846 420.054 29.2113 416.245 29.2113C412.247 29.2113 408.533 29.9095 405.106 31.3059C401.678 32.6388 398.695 34.5747 396.156 37.1136C393.617 39.589 391.618 42.5088 390.158 45.8728C388.762 49.1734 388.064 52.823 388.064 56.8218C388.064 60.8206 388.762 64.502 390.158 67.866C391.618 71.1666 393.617 74.0863 396.156 76.6252C398.695 79.1006 401.678 81.0366 405.106 82.4329C408.533 83.7659 412.247 84.4323 416.245 84.4323C420.054 84.4323 423.608 83.7976 426.909 82.5282C430.209 81.2587 433.224 79.2276 435.954 76.4348L440.428 80.9096C437.509 84.1467 433.922 86.5904 429.67 88.2407C425.417 89.891 420.847 90.7161 415.96 90.7161Z" fill="#515151"/>
<path d="M349.36 90.621C344.155 90.621 339.585 89.542 335.65 87.3839C331.714 85.1624 328.636 82.1474 326.414 78.3391C324.193 74.4673 323.082 70.0559 323.082 65.1051C323.082 60.1542 324.129 55.7746 326.224 51.9663C328.382 48.1579 331.302 45.1747 334.983 43.0166C338.728 40.7951 342.917 39.6843 347.551 39.6843C352.248 39.6843 356.405 40.7634 360.023 42.9214C363.704 45.016 366.592 47.9992 368.687 51.871C370.782 55.6794 371.829 60.0907 371.829 65.1051C371.829 65.4224 371.797 65.7715 371.734 66.1524C371.734 66.4697 371.734 66.8188 371.734 67.1997H328.223V62.1536H368.116L365.45 64.153C365.45 60.535 364.657 57.3297 363.07 54.5369C361.546 51.6806 359.452 49.4591 356.786 47.8723C354.12 46.2855 351.042 45.4921 347.551 45.4921C344.123 45.4921 341.045 46.2855 338.315 47.8723C335.586 49.4591 333.46 51.6806 331.936 54.5369C330.413 57.3931 329.651 60.662 329.651 64.3434V65.3907C329.651 69.199 330.477 72.5631 332.127 75.4828C333.841 78.3391 336.189 80.5923 339.172 82.2426C342.219 83.8294 345.678 84.6229 349.55 84.6229C352.597 84.6229 355.421 84.0833 358.024 83.0043C360.689 81.9253 362.974 80.275 364.879 78.0535L368.687 82.433C366.465 85.0989 363.673 87.13 360.309 88.5264C357.008 89.9228 353.358 90.621 349.36 90.621Z" fill="#515151"/>
<path d="M289.403 90.6209C285.024 90.6209 281.088 89.6371 277.597 87.6695C274.106 85.6383 271.345 82.7186 269.314 78.9103C267.283 75.1019 266.267 70.5001 266.267 65.105C266.267 59.6464 267.283 55.0446 269.314 51.2997C271.409 47.4914 274.201 44.6034 277.692 42.6357C281.183 40.6681 285.087 39.6843 289.403 39.6843C294.164 39.6843 298.416 40.7633 302.161 42.9213C305.969 45.0159 308.953 47.9674 311.111 51.7758C313.269 55.5841 314.348 60.0272 314.348 65.105C314.348 70.1193 313.269 74.5624 311.111 78.4342C308.953 82.2426 305.969 85.2258 302.161 87.3838C298.416 89.5419 294.164 90.6209 289.403 90.6209ZM263.602 90.1449V19.5H270.361V54.9177L269.409 65.0098L270.076 75.1019V90.1449H263.602ZM288.927 84.6228C292.482 84.6228 295.655 83.8294 298.448 82.2426C301.241 80.5923 303.462 78.3073 305.113 75.3875C306.763 72.4043 307.588 68.9768 307.588 65.105C307.588 61.1697 306.763 57.7422 305.113 54.8224C303.462 51.9027 301.241 49.6494 298.448 48.0626C295.655 46.4123 292.482 45.5872 288.927 45.5872C285.373 45.5872 282.167 46.4123 279.311 48.0626C276.518 49.6494 274.297 51.9027 272.646 54.8224C271.06 57.7422 270.266 61.1697 270.266 65.105C270.266 68.9768 271.06 72.4043 272.646 75.3875C274.297 78.3073 276.518 80.5923 279.311 82.2426C282.167 83.8294 285.373 84.6228 288.927 84.6228Z" fill="#515151"/>
<path d="M238.031 90.1449V40.1603H244.791V90.1449H238.031ZM241.459 29.1161C240.062 29.1161 238.888 28.64 237.936 27.688C236.984 26.7359 236.508 25.5934 236.508 24.2604C236.508 22.9275 236.984 21.8167 237.936 20.9281C238.888 19.976 240.062 19.5 241.459 19.5C242.855 19.5 244.029 19.9443 244.981 20.8329C245.933 21.7215 246.41 22.8323 246.41 24.1652C246.41 25.5616 245.933 26.7359 244.981 27.688C244.093 28.64 242.919 29.1161 241.459 29.1161Z" fill="#515151"/>
<path d="M193.601 90.1449L164.086 23.4988H171.703L199.313 86.2413H195.124L222.925 23.4988H230.066L200.551 90.1449H193.601Z" fill="#515151"/>
</svg>
