<svg width="24" height="24" viewBox="0 0 24 24" fill="none" xmlns="http://www.w3.org/2000/svg">
<path d="M21.0049 11.877C21.0048 11.8479 20.9941 11.8202 20.9756 11.7979C20.9569 11.7754 20.931 11.7602 20.9023 11.7549L20.9004 11.7539L15.3428 10.7031C14.7748 10.5958 14.2525 10.3198 13.8438 9.91113C13.4351 9.50245 13.1591 8.98001 13.0518 8.41211L12.001 2.85352L12 2.85156C11.9946 2.82313 11.9793 2.79782 11.957 2.7793C11.9346 2.76066 11.9061 2.75 11.877 2.75C11.8479 2.7501 11.8202 2.76075 11.7979 2.7793C11.7756 2.79782 11.7603 2.82312 11.7549 2.85156L11.7539 2.85352L10.7031 8.41211C10.5958 8.98002 10.3198 9.50245 9.91113 9.91113C9.50245 10.3198 8.98002 10.5958 8.41211 10.7031L2.85352 11.7539L2.85156 11.7549C2.82312 11.7603 2.79782 11.7756 2.7793 11.7979C2.76075 11.8202 2.7501 11.8479 2.75 11.877C2.75 11.9061 2.76066 11.9346 2.7793 11.957C2.79782 11.9793 2.82313 11.9946 2.85156 12L2.85352 12.001L8.41211 13.0518C8.98001 13.1591 9.50245 13.4351 9.91113 13.8438C10.3198 14.2525 10.5958 14.7748 10.7031 15.3428L11.7539 20.9004L11.7549 20.9023C11.7602 20.931 11.7754 20.9569 11.7979 20.9756C11.8202 20.9941 11.8479 21.0048 11.877 21.0049C11.9061 21.0049 11.9346 20.9942 11.957 20.9756C11.9794 20.957 11.9946 20.931 12 20.9023L12.001 20.9004L13.0518 15.3428C13.1591 14.7748 13.435 14.2525 13.8438 13.8438C14.2525 13.435 14.7748 13.1591 15.3428 13.0518L20.9004 12.001L20.9023 12C20.931 11.9946 20.957 11.9794 20.9756 11.957C20.9942 11.9346 21.0049 11.9061 21.0049 11.877ZM22.7549 11.877C22.7549 12.3145 22.6018 12.7386 22.3223 13.0752C22.0427 13.4118 21.6538 13.6404 21.2236 13.7207L21.2227 13.7197L15.668 14.7715C15.4457 14.8135 15.241 14.9211 15.0811 15.0811C14.9611 15.2011 14.87 15.3461 14.8145 15.5049L14.7715 15.668L13.7197 21.2227L13.7207 21.2236C13.6404 21.6538 13.4118 22.0427 13.0752 22.3223C12.7386 22.6018 12.3145 22.7549 11.877 22.7549C11.4396 22.7548 11.0162 22.6016 10.6797 22.3223C10.3435 22.043 10.1148 21.6551 10.0342 21.2256L8.9834 15.668C8.94141 15.4457 8.83375 15.241 8.67383 15.0811C8.55385 14.9611 8.40879 14.87 8.25 14.8145L8.08691 14.7715L2.53027 13.7197C2.10039 13.6393 1.71204 13.4116 1.43262 13.0752C1.1531 12.7386 1 12.3145 1 11.877C1.0001 11.4396 1.15322 11.0162 1.43262 10.6797C1.71187 10.3434 2.09973 10.1147 2.5293 10.0342L8.08691 8.9834L8.25 8.94043C8.4088 8.88484 8.55385 8.79381 8.67383 8.67383C8.83378 8.51388 8.94141 8.30919 8.9834 8.08691L10.0342 2.5293C10.1147 2.09973 10.3434 1.71187 10.6797 1.43262C11.0162 1.15322 11.4396 1.0001 11.877 1C12.3145 1 12.7386 1.1531 13.0752 1.43262C13.4117 1.71208 13.6403 2.10032 13.7207 2.53027L14.7715 8.08691L14.8145 8.25C14.87 8.40879 14.9611 8.55385 15.0811 8.67383C15.241 8.83375 15.4457 8.94141 15.668 8.9834L21.2256 10.0342C21.6555 10.1146 22.0428 10.3432 22.3223 10.6797C22.6016 11.0162 22.7548 11.4396 22.7549 11.877Z" fill="black"/>
<path d="M19.0024 5.8774V1.8774C19.0024 1.39415 19.3941 1.0024 19.8774 1.0024C20.3606 1.0024 20.7524 1.39415 20.7524 1.8774V5.8774C20.7524 6.36064 20.3606 6.7524 19.8774 6.7524C19.3941 6.7524 19.0024 6.36064 19.0024 5.8774Z" fill="black"/>
<path d="M21.8774 3.0024C22.3606 3.0024 22.7524 3.39415 22.7524 3.8774C22.7524 4.36064 22.3606 4.7524 21.8774 4.7524H17.8774C17.3941 4.7524 17.0024 4.36064 17.0024 3.8774C17.0024 3.39415 17.3941 3.0024 17.8774 3.0024H21.8774Z" fill="black"/>
<path d="M5.0024 19.8774C5.0024 19.2561 4.49872 18.7524 3.8774 18.7524C3.25608 18.7524 2.7524 19.2561 2.7524 19.8774C2.7524 20.4987 3.25608 21.0024 3.8774 21.0024C4.49872 21.0024 5.0024 20.4987 5.0024 19.8774ZM6.7524 19.8774C6.7524 21.4652 5.46521 22.7524 3.8774 22.7524C2.28958 22.7524 1.0024 21.4652 1.0024 19.8774C1.0024 18.2896 2.28958 17.0024 3.8774 17.0024C5.46521 17.0024 6.7524 18.2896 6.7524 19.8774Z" fill="black"/>
</svg>
