<svg width="24" height="24" viewBox="0 0 24 24" fill="none" xmlns="http://www.w3.org/2000/svg">
<path d="M20 4.875C20 4.25368 19.4963 3.75 18.875 3.75H4.875C4.25368 3.75 3.75 4.25368 3.75 4.875V18.875C3.75 19.4963 4.25368 20 4.875 20H18.875C19.4963 20 20 19.4963 20 18.875V4.875ZM21.75 18.875C21.75 20.4628 20.4628 21.75 18.875 21.75H4.875C3.28718 21.75 2 20.4628 2 18.875V4.875C2 3.28718 3.28718 2 4.875 2H18.875C20.4628 2 21.75 3.28718 21.75 4.875V18.875Z" fill="black"/>
<path d="M6 16.875V6.875C6 6.39175 6.39175 6 6.875 6C7.35825 6 7.75 6.39175 7.75 6.875V16.875C7.75 17.3582 7.35825 17.75 6.875 17.75C6.39175 17.75 6 17.3582 6 16.875Z" fill="black"/>
<path d="M10 16.875V6.875C10 6.39175 10.3918 6 10.875 6C11.3582 6 11.75 6.39175 11.75 6.875V16.875C11.75 17.3582 11.3582 17.75 10.875 17.75C10.3918 17.75 10 17.3582 10 16.875Z" fill="black"/>
<path d="M14.7031 6.0166C15.1769 5.92184 15.6385 6.22936 15.7334 6.70312L17.7334 16.7031C17.8282 17.1769 17.5206 17.6385 17.0469 17.7334C16.5731 17.8282 16.1115 17.5206 16.0166 17.0469L14.0166 7.04687C13.9218 6.57307 14.2294 6.11146 14.7031 6.0166Z" fill="black"/>
</svg>
