<svg width="24" height="24" viewBox="0 0 24 24" fill="none" xmlns="http://www.w3.org/2000/svg">
<path d="M21 9.875C21 9.25368 20.4963 8.75 19.875 8.75H9.875C9.25368 8.75 8.75 9.25368 8.75 9.875V19.875C8.75 20.4963 9.25368 21 9.875 21H19.875C20.4963 21 21 20.4963 21 19.875V9.875ZM22.75 19.875C22.75 21.4628 21.4628 22.75 19.875 22.75H9.875C8.28718 22.75 7 21.4628 7 19.875V9.875C7 8.28718 8.28718 7 9.875 7H19.875C21.4628 7 22.75 8.28718 22.75 9.875V19.875Z" fill="black"/>
<path d="M15 3.875C15 3.25825 14.4918 2.75 13.875 2.75H3.875C3.25825 2.75 2.75 3.25825 2.75 3.875V13.875C2.75 14.4918 3.25825 15 3.875 15C4.35825 15 4.75 15.3918 4.75 15.875C4.75 16.3582 4.35825 16.75 3.875 16.75C2.29175 16.75 1 15.4582 1 13.875V3.875C1 2.29175 2.29175 1 3.875 1H13.875C15.4582 1 16.75 2.29175 16.75 3.875C16.75 4.35825 16.3582 4.75 15.875 4.75C15.3918 4.75 15 4.35825 15 3.875Z" fill="black"/>
</svg>
