<svg width="24" height="24" viewBox="0 0 24 24" fill="none" xmlns="http://www.w3.org/2000/svg">
<path d="M6.53468 2.56261C9.2309 1.48413 11.5487 2.02114 12.4888 3.61925C12.9535 4.40942 12.9906 5.36206 12.5659 6.22277C12.1467 7.0722 11.3181 7.76262 10.1665 8.19445C10.1469 8.20178 10.127 8.20807 10.1069 8.21398C5.96587 9.43194 4.30589 11.179 3.87745 12.464C3.5003 13.5954 4.00166 14.5622 4.94288 14.9708L5.13624 15.045L5.18507 15.0626C6.04765 15.4075 6.91747 15.1986 7.95655 14.4825C9.01907 13.7503 10.0723 12.6144 11.2241 11.3986C12.3304 10.2308 13.5418 8.97425 14.8267 8.22765C15.483 7.84632 16.2009 7.57157 16.9732 7.52355C17.7585 7.47479 18.543 7.66486 19.3101 8.12511C20.8311 9.03787 21.6013 10.5152 21.8423 12.0948C22.0807 13.6582 21.8123 15.3592 21.2407 16.8722C21.1633 17.0772 21.0782 17.2795 20.9888 17.4796C21.1956 17.7731 21.4022 18.0856 21.606 18.4191C21.8579 18.8314 21.7282 19.3692 21.3159 19.6212C20.9036 19.8732 20.3648 19.7435 20.1128 19.3312C20.0841 19.2842 20.0545 19.2384 20.0259 19.1925C19.618 19.7765 19.1559 20.2989 18.6489 20.7247C17.5268 21.6673 16.0906 22.2074 14.5835 21.7052C14.5442 21.6921 14.5053 21.6759 14.4683 21.6573C12.9576 20.9019 12.176 19.6445 12.0435 18.3302C11.9146 17.0516 12.4062 15.7619 13.3325 14.9161C14.2882 14.0437 15.6737 13.6758 17.1909 14.214C18.0277 14.5109 18.8764 15.0725 19.7153 15.9298C20.1215 14.7248 20.2801 13.4618 20.1118 12.3585C19.9309 11.1726 19.3884 10.2124 18.4097 9.62511C17.9268 9.33536 17.4915 9.24419 17.0816 9.26964C16.6588 9.29596 16.2052 9.45101 15.7056 9.74132C14.678 10.3385 13.6383 11.3945 12.4946 12.6017C11.3967 13.7606 10.1995 15.0626 8.94972 15.9239C7.68905 16.7927 6.20202 17.3296 4.58351 16.7042C2.64779 16.059 1.4948 14.0794 2.2173 11.9112C2.91152 9.82859 5.23766 7.83145 9.56691 6.54894C10.4054 6.23127 10.8231 5.79998 10.9966 5.44835C11.1654 5.10615 11.141 4.77815 10.981 4.50597C10.671 3.97911 9.48869 3.26625 7.18507 4.18761C6.7365 4.36704 6.22697 4.14877 6.04737 3.70031C5.86791 3.25165 6.08606 2.74212 6.53468 2.56261ZM16.606 15.8634C15.7018 15.5427 14.9939 15.7693 14.5122 16.2091C14.0012 16.6758 13.7104 17.4175 13.7847 18.1544C13.854 18.8421 14.2475 19.5673 15.1958 20.0616C15.9225 20.2792 16.715 20.0644 17.5239 19.3849C18.0377 18.9533 18.5186 18.3599 18.9282 17.6652C18.0606 16.6359 17.2635 16.0967 16.606 15.8634Z" fill="black"/>
</svg>
