<svg width="24" height="24" viewBox="0 0 24 24" fill="none" xmlns="http://www.w3.org/2000/svg">
<path d="M21 8.875C21 8.57663 20.8819 8.29008 20.6709 8.0791C20.4599 7.86812 20.1734 7.75 19.875 7.75H17.8779C17.3594 7.74999 16.8506 7.60942 16.4053 7.34375C15.9599 7.07803 15.594 6.69663 15.3477 6.24023L14.8623 5.34082C14.7659 5.16223 14.6225 5.01316 14.4482 4.90918C14.274 4.80521 14.075 4.75001 13.8721 4.75H9.87891C9.67619 4.75 9.47689 4.80444 9.30273 4.9082C9.12861 5.01197 8.98613 5.16158 8.88965 5.33984L8.40039 6.24316C8.1538 6.69876 7.78878 7.07955 7.34375 7.34473C6.89869 7.60989 6.39014 7.75001 5.87207 7.75H3.875C3.57663 7.75 3.29008 7.86812 3.0791 8.0791C2.86812 8.29008 2.75 8.57663 2.75 8.875V17.875C2.75 18.1734 2.86812 18.4599 3.0791 18.6709C3.29008 18.8819 3.57663 19 3.875 19H19.875C20.1734 19 20.4599 18.8819 20.6709 18.6709C20.8819 18.4599 21 18.1734 21 17.875V8.875ZM22.75 17.875C22.75 18.6375 22.4474 19.369 21.9082 19.9082C21.369 20.4474 20.6375 20.75 19.875 20.75H3.875C3.1125 20.75 2.38096 20.4474 1.8418 19.9082C1.30263 19.369 1 18.6375 1 17.875V8.875C1 8.1125 1.30263 7.38096 1.8418 6.8418C2.38096 6.30263 3.1125 6 3.875 6H5.87207C6.0748 6.00001 6.27408 5.94556 6.44824 5.8418C6.62237 5.73803 6.76484 5.58842 6.86133 5.41016L7.35059 4.50684L7.44824 4.33887C7.68939 3.95728 8.0179 3.63727 8.40723 3.40527C8.85228 3.14011 9.36085 3 9.87891 3H13.8721C14.3906 3.00001 14.8994 3.14058 15.3447 3.40625C15.7899 3.67183 16.155 4.05271 16.4014 4.50879L16.8877 5.40918C16.9841 5.58777 17.1275 5.73684 17.3018 5.84082C17.476 5.94479 17.675 5.99999 17.8779 6H19.875C20.6375 6 21.369 6.30263 21.9082 6.8418C22.4474 7.38096 22.75 8.1125 22.75 8.875V17.875Z" fill="black"/>
<path d="M14 12.875C14 11.7014 13.0486 10.75 11.875 10.75C10.7014 10.75 9.75 11.7014 9.75 12.875C9.75 14.0486 10.7014 15 11.875 15C13.0486 15 14 14.0486 14 12.875ZM15.75 12.875C15.75 15.0151 14.0151 16.75 11.875 16.75C9.7349 16.75 8 15.0151 8 12.875C8 10.7349 9.7349 9 11.875 9C14.0151 9 15.75 10.7349 15.75 12.875Z" fill="black"/>
</svg>
