<svg width="24" height="24" viewBox="0 0 24 24" fill="none" xmlns="http://www.w3.org/2000/svg">
<path d="M6.38086 6.38086C6.72257 6.03915 7.27743 6.03915 7.61914 6.38086L9.61914 8.38086C9.96085 8.72257 9.96085 9.27743 9.61914 9.61914L7.61914 11.6191C7.27743 11.9609 6.72257 11.9609 6.38086 11.6191C6.03915 11.2774 6.03915 10.7226 6.38086 10.3809L7.76172 9L6.38086 7.61914C6.03915 7.27743 6.03915 6.72257 6.38086 6.38086Z" fill="black"/>
<path d="M15 12.125C15.4832 12.125 15.875 12.5168 15.875 13C15.875 13.4832 15.4832 13.875 15 13.875H11C10.5168 13.875 10.125 13.4832 10.125 13C10.125 12.5168 10.5168 12.125 11 12.125H15Z" fill="black"/>
<path d="M20.125 5C20.125 4.37868 19.6213 3.875 19 3.875H5C4.37868 3.875 3.875 4.37868 3.875 5V19C3.875 19.6213 4.37868 20.125 5 20.125H19C19.6213 20.125 20.125 19.6213 20.125 19V5ZM21.875 19C21.875 20.5878 20.5878 21.875 19 21.875H5C3.41218 21.875 2.125 20.5878 2.125 19V5C2.125 3.41218 3.41218 2.125 5 2.125H19C20.5878 2.125 21.875 3.41218 21.875 5V19Z" fill="black"/>
</svg>
