<svg width="479" height="110" viewBox="0 0 479 110" fill="none" xmlns="http://www.w3.org/2000/svg">
<path d="M0 57.1728C6.8891 57.1728 13.7108 58.5298 20.0755 61.1661C26.4402 63.8025 32.2233 67.6666 37.0946 72.5379C41.9659 77.4092 45.8301 83.1924 48.4664 89.5571C51.1028 95.9218 52.4597 102.743 52.4597 109.633H5.35315C2.39669 109.633 1.29231e-07 107.236 0 104.279V57.1728Z" fill="#FF8D76"/>
<path d="M103.503 90.5181C103.155 92.4072 101.823 93.9655 100.01 94.6015L57.1728 109.633C57.1728 102.743 58.5298 95.9218 61.1661 89.5571C63.8025 83.1924 67.6666 77.4092 72.5379 72.5379C77.4092 67.6666 83.1924 63.8025 89.5571 61.1661C95.9218 58.5298 102.743 57.1728 109.633 57.1728L103.503 90.5181Z" fill="#FF8D76"/>
<path d="M52.4597 0C52.4597 6.8891 51.1028 13.7108 48.4664 20.0755C45.8301 26.4402 41.9659 32.2233 37.0946 37.0946C32.2233 41.9659 26.4402 45.8301 20.0755 48.4664C13.7108 51.1027 6.8891 52.4597 0 52.4597V5.35315C1.29231e-07 2.39669 2.39669 9.59242e-07 5.35315 0H52.4597Z" fill="#FF8D76"/>
<path d="M96.9948 6.6699C99.1885 7.03733 100.926 8.72299 101.361 10.9044L109.633 52.4597C102.743 52.4597 95.9218 51.1027 89.5571 48.4664C83.1924 45.8301 77.4092 41.9659 72.5379 37.0946C67.6666 32.2233 63.8025 26.4402 61.1661 20.0755C58.5298 13.7108 57.1728 6.8891 57.1728 0L96.9948 6.6699Z" fill="#FF8D76"/>
<path d="M457.635 77.6172C453.938 77.6172 450.595 76.7746 447.605 75.0893C444.615 73.3496 442.222 70.876 440.428 67.6685C438.689 64.4067 437.819 60.438 437.819 55.7627C437.819 51.0874 438.689 47.1459 440.428 43.9384C442.168 40.6766 444.533 38.203 447.523 36.5177C450.513 34.8324 453.884 33.9897 457.635 33.9897C461.712 33.9897 465.355 34.9139 468.562 36.7623C471.824 38.5564 474.379 41.1115 476.227 44.4277C478.076 47.6896 479 51.4679 479 55.7627C479 60.1119 478.076 63.9174 476.227 67.1792C474.379 70.4411 471.824 72.9962 468.562 74.8446C465.355 76.693 461.712 77.6172 457.635 77.6172ZM435.536 93.0295V34.3975H441.081V47.2819L440.51 55.8442L441.325 64.4882V93.0295H435.536ZM457.227 72.4798C460.271 72.4798 462.99 71.8002 465.382 70.4411C467.774 69.0276 469.677 67.0705 471.09 64.5697C472.503 62.0146 473.21 59.0789 473.21 55.7627C473.21 52.4465 472.503 49.538 471.09 47.0372C469.677 44.5364 467.774 42.5793 465.382 41.1659C462.99 39.7524 460.271 39.0456 457.227 39.0456C454.183 39.0456 451.437 39.7524 448.991 41.1659C446.599 42.5793 444.696 44.5364 443.283 47.0372C441.923 49.538 441.244 52.4465 441.244 55.7627C441.244 59.0789 441.923 62.0146 443.283 64.5697C444.696 67.0705 446.599 69.0276 448.991 70.4411C451.437 71.8002 454.183 72.4798 457.227 72.4798Z" fill="#515151"/>
<path d="M414.265 77.2095V67.7501L414.02 66.2007V50.3806C414.02 46.7382 412.987 43.9384 410.921 41.9813C408.91 40.0242 405.892 39.0456 401.869 39.0456C399.097 39.0456 396.46 39.5077 393.959 40.4319C391.459 41.3561 389.338 42.5793 387.599 44.1015L384.989 39.7796C387.164 37.9312 389.773 36.5177 392.818 35.5391C395.862 34.5062 399.07 33.9897 402.44 33.9897C407.985 33.9897 412.253 35.376 415.243 38.1486C418.288 40.8668 419.81 45.0257 419.81 50.6253V77.2095H414.265ZM399.505 77.6172C396.297 77.6172 393.497 77.1008 391.105 76.0678C388.768 74.9805 386.974 73.5127 385.723 71.6643C384.473 69.7616 383.848 67.587 383.848 65.1406C383.848 62.9116 384.364 60.9001 385.397 59.1061C386.484 57.2577 388.224 55.7899 390.616 54.7026C393.062 53.5609 396.324 52.9901 400.402 52.9901H415.162V57.3121H400.565C396.433 57.3121 393.552 58.046 391.921 59.5139C390.344 60.9817 389.556 62.8029 389.556 64.9775C389.556 67.4239 390.507 69.381 392.41 70.8488C394.313 72.3167 396.977 73.0506 400.402 73.0506C403.663 73.0506 406.463 72.3167 408.801 70.8488C411.193 69.3266 412.933 67.1521 414.02 64.3251L415.325 68.3209C414.237 71.1478 412.335 73.404 409.616 75.0893C406.953 76.7746 403.582 77.6172 399.505 77.6172Z" fill="#515151"/>
<path d="M356.271 77.6988C351.976 77.6988 348.007 76.9921 344.365 75.5786C340.723 74.1107 337.57 72.0721 334.906 69.4626C332.242 66.8531 330.149 63.7815 328.627 60.2478C327.159 56.7141 326.425 52.8542 326.425 48.6682C326.425 44.4821 327.159 40.6222 328.627 37.0886C330.149 33.5549 332.242 30.4833 334.906 27.8738C337.624 25.2643 340.804 23.2528 344.447 21.8393C348.089 20.3715 352.058 19.6376 356.352 19.6376C360.484 19.6376 364.371 20.3443 368.014 21.7578C371.656 23.1169 374.728 25.1827 377.228 27.9553L373.396 31.788C371.058 29.396 368.476 27.6835 365.649 26.6506C362.822 25.5633 359.777 25.0197 356.516 25.0197C353.091 25.0197 349.91 25.6177 346.975 26.8137C344.039 27.9553 341.484 29.6134 339.309 31.788C337.135 33.9082 335.422 36.409 334.172 39.2903C332.976 42.1173 332.378 45.2432 332.378 48.6682C332.378 52.0931 332.976 55.2463 334.172 58.1276C335.422 60.9545 337.135 63.4553 339.309 65.6299C341.484 67.7501 344.039 69.4082 346.975 70.6042C349.91 71.7459 353.091 72.3167 356.516 72.3167C359.777 72.3167 362.822 71.7731 365.649 70.6858C368.476 69.5985 371.058 67.8588 373.396 65.4668L377.228 69.2995C374.728 72.0721 371.656 74.1651 368.014 75.5786C364.371 76.9921 360.457 77.6988 356.271 77.6988Z" fill="#515151"/>
<path d="M299.228 77.6172C294.77 77.6172 290.855 76.693 287.485 74.8446C284.114 72.9419 281.478 70.3596 279.575 67.0977C277.672 63.7815 276.721 60.0031 276.721 55.7627C276.721 51.5223 277.618 47.7711 279.412 44.5093C281.26 41.2474 283.761 38.6923 286.914 36.8439C290.121 34.9411 293.71 33.9897 297.678 33.9897C301.701 33.9897 305.262 34.9139 308.361 36.7623C311.514 38.5564 313.987 41.1115 315.781 44.4277C317.576 47.6896 318.473 51.4679 318.473 55.7627C318.473 56.0345 318.445 56.3335 318.391 56.6597C318.391 56.9315 318.391 57.2305 318.391 57.5567H281.124V53.2348H315.292L313.009 54.9472C313.009 51.8485 312.329 49.1031 310.97 46.711C309.666 44.2646 307.871 42.3619 305.588 41.0028C303.305 39.6436 300.668 38.9641 297.678 38.9641C294.742 38.9641 292.106 39.6436 289.768 41.0028C287.43 42.3619 285.609 44.2646 284.304 46.711C283 49.1574 282.347 51.9572 282.347 55.1103V56.0073C282.347 59.2692 283.054 62.1505 284.468 64.6513C285.935 67.0977 287.947 69.0276 290.502 70.4411C293.112 71.8002 296.074 72.4798 299.391 72.4798C302 72.4798 304.419 72.0177 306.648 71.0935C308.932 70.1693 310.889 68.7558 312.52 66.8531L315.781 70.6042C313.879 72.8875 311.487 74.6272 308.605 75.8232C305.778 77.0192 302.652 77.6172 299.228 77.6172Z" fill="#515151"/>
<path d="M247.875 77.6173C244.124 77.6173 240.753 76.7746 237.763 75.0893C234.773 73.3496 232.408 70.8489 230.669 67.587C228.929 64.3252 228.059 60.3837 228.059 55.7628C228.059 51.0874 228.929 47.146 230.669 43.9385C232.463 40.6766 234.855 38.203 237.845 36.5177C240.835 34.8324 244.178 33.9898 247.875 33.9898C251.952 33.9898 255.595 34.914 258.802 36.7624C262.064 38.5564 264.619 41.0844 266.468 44.3462C268.316 47.6081 269.24 51.4136 269.24 55.7628C269.24 60.0575 268.316 63.8631 266.468 67.1793C264.619 70.4412 262.064 72.9963 258.802 74.8447C255.595 76.6931 251.952 77.6173 247.875 77.6173ZM225.776 77.2095V16.7019H231.566V47.0373L230.75 55.6812L231.321 64.3252V77.2095H225.776ZM247.467 72.4798C250.512 72.4798 253.23 71.8003 255.622 70.4412C258.014 69.0277 259.917 67.0706 261.33 64.5698C262.744 62.0147 263.45 59.079 263.45 55.7628C263.45 52.3922 262.744 49.4565 261.33 46.9557C259.917 44.4549 258.014 42.525 255.622 41.1659C253.23 39.7524 250.512 39.0457 247.467 39.0457C244.423 39.0457 241.677 39.7524 239.231 41.1659C236.839 42.525 234.936 44.4549 233.523 46.9557C232.164 49.4565 231.484 52.3922 231.484 55.7628C231.484 59.079 232.164 62.0147 233.523 64.5698C234.936 67.0706 236.839 69.0277 239.231 70.4412C241.677 71.8003 244.423 72.4798 247.467 72.4798Z" fill="#515151"/>
<path d="M203.876 77.2095V34.3975H209.666V77.2095H203.876ZM206.812 24.9381C205.616 24.9381 204.61 24.5304 203.794 23.7149C202.979 22.8995 202.571 21.9209 202.571 20.7792C202.571 19.6376 202.979 18.6862 203.794 17.9251C204.61 17.1096 205.616 16.7019 206.812 16.7019C208.008 16.7019 209.013 17.0825 209.829 17.8436C210.644 18.6047 211.052 19.556 211.052 20.6977C211.052 21.8937 210.644 22.8995 209.829 23.7149C209.068 24.5304 208.062 24.9381 206.812 24.9381Z" fill="#515151"/>
<path d="M165.821 77.2096L140.542 20.127H147.065L170.714 73.8662H167.126L190.937 20.127H197.053L171.774 77.2096H165.821Z" fill="#515151"/>
</svg>
